<svg width="30" height="30" viewBox="0 0 30 30" fill="none" xmlns="http://www.w3.org/2000/svg">
<path fill-rule="evenodd" clip-rule="evenodd" d="M15 10C12.2386 10 10 12.2386 10 15C10 17.7615 12.2386 20 15 20C17.7614 20 20 17.7615 20 15C20 12.2386 17.7614 10 15 10ZM12.5 15C12.5 13.6194 13.6193 12.5 15 12.5C16.3808 12.5 17.5 13.6194 17.5 15C17.5 16.3807 16.3808 17.5 15 17.5C13.6193 17.5 12.5 16.3807 12.5 15Z" fill="#3D6A9F"/>
<path fill-rule="evenodd" clip-rule="evenodd" d="M15 10C12.2386 10 10 12.2386 10 15C10 17.7615 12.2386 20 15 20C17.7614 20 20 17.7615 20 15C20 12.2386 17.7614 10 15 10ZM12.5 15C12.5 13.6194 13.6193 12.5 15 12.5C16.3808 12.5 17.5 13.6194 17.5 15C17.5 16.3807 16.3808 17.5 15 17.5C13.6193 17.5 12.5 16.3807 12.5 15Z" fill="#3D6A9F"/>
<path fill-rule="evenodd" clip-rule="evenodd" d="M13.4591 1.27136C13.7406 1.24979 14.0568 1.24991 14.3145 1.25001H15.6855C15.9433 1.24991 16.2594 1.24979 16.5409 1.27136C16.8736 1.29686 17.3348 1.3617 17.8293 1.58671C18.4544 1.87111 18.9894 2.3217 19.3759 2.88934C19.6818 3.33844 19.824 3.78187 19.9058 4.10537C19.9749 4.37917 20.0285 4.69061 20.0721 4.94462L20.2491 5.97044L20.2526 5.97235C20.2961 5.9964 20.3394 6.02074 20.3825 6.04537L20.3858 6.04717L21.5569 5.62331C21.7945 5.53722 22.0866 5.43136 22.3544 5.35679C22.6714 5.2685 23.1193 5.17361 23.652 5.21282C24.3268 5.26247 24.9754 5.49371 25.5294 5.88204C25.9668 6.18869 26.2536 6.54545 26.4433 6.81437C26.6036 7.04157 26.7629 7.30839 26.8925 7.52536L27.5198 8.57504C27.657 8.80431 27.8243 9.08391 27.9534 9.34409C28.1054 9.65037 28.291 10.0934 28.3471 10.6508C28.4176 11.3528 28.2889 12.0604 27.9754 12.6924C27.7264 13.1942 27.3964 13.5434 27.1461 13.7765C26.9336 13.9744 26.6785 14.1771 26.4694 14.3432L25.625 15L26.4694 15.6567C26.6785 15.823 26.9336 16.0256 27.1461 16.2236C27.3964 16.4566 27.7264 16.8057 27.9753 17.3076C28.2888 17.9396 28.4176 18.6472 28.347 19.3492C28.291 19.9066 28.1053 20.3496 27.9533 20.656C27.8241 20.9161 27.6569 21.1957 27.5198 21.425L26.8923 22.4749C26.7628 22.6919 26.6035 22.9585 26.4433 23.1856C26.2535 23.4546 25.9668 23.8114 25.5293 24.118C24.9754 24.5064 24.3266 24.7376 23.652 24.7873C23.1193 24.8265 22.6714 24.7315 22.3544 24.6432C22.0865 24.5686 21.7944 24.4629 21.5568 24.3768L20.3856 23.9529L20.3825 23.9548C20.3394 23.9794 20.2961 24.0036 20.2526 24.0278L20.2491 24.0296L20.0721 25.0554C20.0285 25.3094 19.9749 25.6209 19.9058 25.8946C19.824 26.2181 19.6818 26.6616 19.3759 27.1108C18.9894 27.6784 18.4544 28.129 17.8293 28.4134C17.3348 28.6384 16.8736 28.7033 16.5409 28.7288C16.2593 28.7502 15.9433 28.7501 15.6855 28.75H14.3145C14.0568 28.7501 13.7406 28.7502 13.4591 28.7288C13.1264 28.7033 12.6653 28.6384 12.1707 28.4134C11.5456 28.129 11.0106 27.6784 10.6241 27.1108C10.3183 26.6616 10.176 26.2181 10.0943 25.8946C10.0251 25.6209 9.97154 25.3094 9.92781 25.0554L9.75085 24.0296L9.74739 24.0278C9.70388 24.0036 9.66057 23.9794 9.61745 23.9546L9.61428 23.9529L8.44323 24.3768C8.20563 24.4628 7.91348 24.5686 7.64564 24.6432C7.3286 24.7315 6.88079 24.8264 6.34801 24.7873C5.67333 24.7376 5.02464 24.5064 4.47068 24.118C4.03325 23.8114 3.74643 23.4546 3.55674 23.1856C3.39648 22.9585 3.23718 22.6917 3.10763 22.4747L2.48023 21.425C2.34309 21.1957 2.17584 20.9161 2.04671 20.656C1.89469 20.3496 1.70899 19.9066 1.65294 19.3492C1.58235 18.6472 1.71121 17.9396 2.0247 17.3076C2.27365 16.8057 2.60362 16.4566 2.85385 16.2236C3.0664 16.0256 3.32147 15.823 3.53061 15.6567L4.34805 15.0067V14.9934L3.53056 14.3432C3.3214 14.1771 3.06635 13.9744 2.8538 13.7765C2.60357 13.5434 2.2736 13.1942 2.02465 12.6924C1.71116 12.0604 1.5823 11.3528 1.65288 10.6509C1.70893 10.0934 1.89464 9.6504 2.04665 9.3441C2.17578 9.08394 2.34304 8.80434 2.48018 8.57506L3.10756 7.52532C3.23711 7.30836 3.39643 7.04157 3.55668 6.81439C3.74638 6.54546 4.03319 6.1887 4.47063 5.88206C5.02458 5.49372 5.67328 5.26249 6.34797 5.21284C6.88073 5.17362 7.32855 5.26851 7.64558 5.3568C7.9134 5.43139 8.20555 5.53725 8.44314 5.62334L9.61426 6.04719L9.61743 6.04537C9.66055 6.02075 9.70388 5.9964 9.74739 5.97235L9.75085 5.97044L9.92781 4.94464C9.97154 4.69062 10.0251 4.37917 10.0943 4.10537C10.176 3.78187 10.3183 3.33844 10.6241 2.88934C11.0106 2.3217 11.5456 1.87111 12.1707 1.58671C12.6653 1.3617 13.1264 1.29686 13.4591 1.27136ZM17.6173 5.42037C17.5138 4.82042 17.462 4.52046 17.3095 4.29646C17.1806 4.10725 17.0024 3.95705 16.794 3.86225C16.5473 3.75002 16.2429 3.75002 15.6341 3.75002H14.3659C13.7571 3.75002 13.4526 3.75002 13.206 3.86225C12.9976 3.95705 12.8194 4.10725 12.6905 4.29646C12.538 4.52046 12.4862 4.82042 12.3827 5.42037L12.1877 6.5508C12.1181 6.95416 12.0833 7.15584 12.0096 7.31086C11.9372 7.46309 11.878 7.54629 11.758 7.66457C11.6357 7.78505 11.4094 7.91012 10.9569 8.16027C10.9236 8.17872 10.8903 8.19739 10.8573 8.21627C10.4245 8.46347 10.208 8.58707 10.0473 8.62892C9.88948 8.67002 9.79116 8.67849 9.62861 8.66495C9.46311 8.65117 9.2777 8.58407 8.90689 8.44987L7.63993 7.99135C7.07839 7.78812 6.79762 7.68651 6.53144 7.7061C6.30655 7.72264 6.09032 7.79972 5.90567 7.92916C5.68713 8.08236 5.53394 8.33867 5.22758 8.85129L4.65337 9.81206C4.32993 10.3532 4.1682 10.6238 4.14034 10.901C4.11681 11.1349 4.15977 11.3708 4.26427 11.5815C4.38803 11.831 4.63475 12.0272 5.1282 12.4196L6.03431 13.1402C6.34909 13.3905 6.50648 13.5157 6.60514 13.6499C6.7118 13.795 6.75729 13.8892 6.80443 14.063C6.84805 14.2237 6.84805 14.4825 6.84805 15C6.84805 15.5175 6.84805 15.7762 6.80443 15.9371C6.75728 16.1109 6.7118 16.2051 6.60517 16.3501C6.50648 16.4844 6.34909 16.6095 6.03429 16.8599L5.12826 17.5804C4.63481 17.9729 4.38809 18.169 4.26431 18.4186C4.15981 18.6292 4.11686 18.8651 4.14039 19.0991C4.16826 19.3762 4.32998 19.6467 4.65341 20.188L5.22763 21.1488C5.534 21.6614 5.68718 21.9178 5.90571 22.0709C6.09038 22.2004 6.3066 22.2774 6.5315 22.294C6.79767 22.3135 7.07844 22.2119 7.63999 22.0088L8.90691 21.5503C9.2777 21.416 9.46313 21.3489 9.62863 21.3351C9.79118 21.3216 9.88949 21.33 10.0473 21.3711C10.2081 21.413 10.4245 21.5366 10.8573 21.7838C10.8904 21.8026 10.9236 21.8214 10.9569 21.8398C11.4094 22.0899 11.6357 22.215 11.7579 22.3355C11.878 22.4538 11.9372 22.537 12.0096 22.6892C12.0833 22.8442 12.1181 23.0459 12.1877 23.4492L12.3827 24.5796C12.4862 25.1796 12.538 25.4796 12.6905 25.7036C12.8194 25.8928 12.9976 26.043 13.206 26.1378C13.4526 26.25 13.7571 26.25 14.3659 26.25H15.6341C16.2429 26.25 16.5473 26.25 16.794 26.1378C17.0024 26.043 17.1806 25.8928 17.3095 25.7036C17.462 25.4796 17.5138 25.1796 17.6173 24.5796L17.8124 23.4492C17.8819 23.0459 17.9168 22.8442 17.9904 22.6892C18.0628 22.537 18.122 22.4538 18.242 22.3355C18.3644 22.215 18.5906 22.0899 19.043 21.8398C19.0764 21.8214 19.1096 21.8026 19.1426 21.7838C19.5755 21.5366 19.7919 21.413 19.9526 21.3711C20.1105 21.33 20.2088 21.3216 20.3714 21.3351C20.5369 21.3489 20.7223 21.416 21.093 21.5503L22.36 22.0088C22.9215 22.212 23.2024 22.3136 23.4685 22.294C23.6934 22.2774 23.9096 22.2004 24.0943 22.0709C24.3128 21.9178 24.466 21.6614 24.7724 21.1488L25.3466 20.188C25.67 19.6469 25.8318 19.3762 25.8596 19.0991C25.8831 18.8651 25.8401 18.6292 25.7356 18.4186C25.6119 18.1691 25.3651 17.9729 24.8718 17.5804L23.9658 16.8599C23.6509 16.6095 23.4935 16.4844 23.3949 16.3501C23.2883 16.2051 23.2428 16.1109 23.1955 15.9371C23.1519 15.7764 23.1519 15.5175 23.1519 15C23.1519 14.4825 23.1519 14.2237 23.1955 14.063C23.2428 13.8892 23.2883 13.795 23.3949 13.6499C23.4935 13.5157 23.6509 13.3905 23.9656 13.1402L24.8718 12.4196C25.3653 12.0272 25.612 11.831 25.7358 11.5815C25.8403 11.3708 25.8831 11.1349 25.8596 10.9009C25.8318 10.6238 25.6701 10.3532 25.3466 9.81205L24.7724 8.85127C24.466 8.33866 24.3129 8.08235 24.0944 7.92915C23.9096 7.79971 23.6935 7.72262 23.4685 7.70607C23.2024 7.68649 22.9216 7.7881 22.36 7.99134L21.0931 8.44986C20.7223 8.58406 20.5369 8.65116 20.3714 8.66494C20.2088 8.67847 20.1105 8.67001 19.9526 8.62891C19.7919 8.58706 19.5755 8.46346 19.1428 8.21627C19.1096 8.19739 19.0764 8.17872 19.0431 8.16027C18.5906 7.91012 18.3644 7.78505 18.242 7.66457C18.122 7.54629 18.0628 7.46309 17.9904 7.31086C17.9168 7.15584 17.8819 6.95415 17.8124 6.5508L17.6173 5.42037Z" fill="#3D6A9F"/>
</svg>
